<svg width="38" height="37" viewBox="0 0 38 37" fill="none" xmlns="http://www.w3.org/2000/svg">
<path fill-rule="evenodd" clip-rule="evenodd" d="M22.0003 4C15.9889 4 12.0003 8.21707 12.0003 13C12.0003 15.6192 12.7621 17.6281 13.8938 18.9484C15.0054 20.2452 16.571 21 18.5003 21C22.3049 21 24.0003 17.9885 24.0003 16.5C24.0003 15.4545 23.7815 14.2443 23.2373 13.3652C22.7736 12.6161 22.0282 12 20.5003 12C19.3735 12 18.6442 12.5847 18.2421 13.4254C17.7942 14.3619 17.8664 15.3896 18.2153 15.971C18.7836 16.9182 18.4765 18.1467 17.5293 18.715C16.5822 19.2833 15.3536 18.9762 14.7853 18.029C13.6342 16.1104 13.7065 13.6381 14.6336 11.6996C15.6065 9.66526 17.6271 8 20.5003 8C23.4724 8 25.4771 9.38388 26.6384 11.2598C27.7192 13.0057 28.0003 15.0455 28.0003 16.5C28.0003 20.0115 24.6957 25 18.5003 25C15.4296 25 12.7452 23.7548 10.8568 21.5516C8.98852 19.3719 8.00033 16.3808 8.00033 13C8.00033 5.78293 14.0117 0 22.0003 0C30.2387 0 37.5003 7.03411 37.5003 17.5C37.5003 28.3777 27.3104 36.5 16.0003 36.5C6.96529 36.5 1.8347 32.1853 0.272768 29.5077C-0.283793 28.5536 0.0384797 27.329 0.992584 26.7724C1.94669 26.2159 3.17132 26.5382 3.72788 27.4923C4.49928 28.8147 8.23537 32.5 16.0003 32.5C25.6903 32.5 33.5003 25.6223 33.5003 17.5C33.5003 8.96589 27.762 4 22.0003 4Z" fill="white"/>
</svg>
